<svg width="107" height="23" viewBox="0 0 107 23" fill="none" xmlns="http://www.w3.org/2000/svg">
<path fill-rule="evenodd" clip-rule="evenodd" d="M5.616 17.664C7.272 17.664 8.496 16.848 9.048 15.864C9.048 16.344 9.12 17.112 9.168 17.376H11.832C11.808 17.184 11.712 16.296 11.712 15.24V0H9V7.056C8.64 6.312 7.608 5.376 5.568 5.376C2.28 5.376 0 8.136 0 11.496C0 15.024 2.256 17.664 5.616 17.664ZM5.928 15.216C4.032 15.216 2.784 13.728 2.784 11.496C2.784 9.264 4.128 7.848 5.952 7.848C7.776 7.848 9.024 9.24 9.024 11.472C9.024 13.704 7.752 15.216 5.928 15.216ZM26.568 11.52C26.568 15.12 24 17.736 20.496 17.736C17.016 17.736 14.448 15.12 14.448 11.52C14.448 7.944 17.016 5.328 20.496 5.328C24 5.328 26.568 7.944 26.568 11.52ZM20.496 15.24C18.792 15.24 17.232 13.944 17.232 11.52C17.232 9.096 18.792 7.848 20.496 7.848C22.224 7.848 23.76 9.096 23.76 11.52C23.76 13.968 22.224 15.24 20.496 15.24ZM36.792 16.08C36.216 17.136 34.848 17.712 33.48 17.712C30.696 17.712 29.064 15.648 29.064 13.056V5.688H31.848V12.552C31.848 13.992 32.52 15.216 34.2 15.216C35.808 15.216 36.648 14.136 36.648 12.6V5.688H39.432V15.24C39.432 16.2 39.504 16.944 39.552 17.376H36.888C36.84 17.112 36.792 16.56 36.792 16.08ZM47.688 22.296C52.08 22.296 53.688 19.392 53.688 16.272V5.688H51V7.176C50.496 6.216 49.368 5.472 47.544 5.472C44.328 5.472 42.144 8.04 42.144 11.16C42.144 14.448 44.424 16.848 47.544 16.848C49.248 16.848 50.424 16.056 50.928 15.144V16.368C50.928 18.744 49.824 19.872 47.616 19.872C46.008 19.872 44.88 18.792 44.688 17.352L42.12 18.024C42.432 20.376 44.592 22.296 47.688 22.296ZM44.952 11.16C44.952 13.2 46.176 14.472 48 14.472C49.776 14.472 51 13.176 51 11.16C51 9.168 49.728 7.872 48 7.872C46.224 7.872 44.952 9.168 44.952 11.16ZM59.88 17.376V10.512C59.928 9.024 60.768 7.872 62.304 7.872C64.056 7.872 64.704 9.024 64.704 10.464V17.376H67.488V9.984C67.488 7.416 66.096 5.352 63.216 5.352C61.992 5.352 60.672 5.784 59.88 6.816V0H57.096V17.376H59.88ZM87.336 13.92C86.784 15.744 85.032 17.736 81.96 17.736C78.528 17.736 75.912 15.072 75.912 11.52C75.912 7.92 78.528 5.328 81.888 5.328C85.032 5.328 86.76 7.296 87.24 9.168L84.744 10.08C84.48 9.048 83.688 7.896 81.912 7.896C80.208 7.896 78.696 9.168 78.696 11.52C78.696 13.872 80.208 15.192 81.96 15.192C83.784 15.192 84.624 13.92 84.888 13.032L87.336 13.92ZM94.824 17.736C98.328 17.736 100.896 15.12 100.896 11.52C100.896 7.944 98.328 5.328 94.824 5.328C91.344 5.328 88.776 7.944 88.776 11.52C88.776 15.12 91.344 17.736 94.824 17.736ZM91.56 11.52C91.56 13.944 93.12 15.24 94.824 15.24C96.552 15.24 98.088 13.968 98.088 11.52C98.088 9.096 96.552 7.848 94.824 7.848C93.12 7.848 91.56 9.096 91.56 11.52Z" fill="black"/>
<path d="M104.928 17.52C106.008 17.52 106.896 16.656 106.896 15.576C106.896 14.496 106.008 13.608 104.928 13.608C103.848 13.608 102.984 14.496 102.984 15.576C102.984 16.656 103.848 17.52 104.928 17.52Z" fill="#FE707B"/>
</svg>
